<?xml version="1.0" encoding="UTF-8" standalone="no"?>
<!-- Copyright (c) 2021. | David Annebicque | IUT de Troyes  - All Rights Reserved -->
<!-- @file /Users/davidannebicque/htdocs/intranetV3/graph.svg -->
<!-- @author davidannebicque -->
<!-- @project intranetV3 -->
<!-- @lastUpdate 26/09/2021 18:50 -->

<!DOCTYPE svg PUBLIC "-//W3C//DTD SVG 1.1//EN"
        "http://www.w3.org/Graphics/SVG/1.1/DTD/svg11.dtd">
<!-- Generated by graphviz version 2.49.0 (20210828.1703)
 -->
<!-- Title: workflow Pages: 1 -->
<svg xmlns:xlink="http://www.w3.org/1999/xlink" width="2336pt"
     height="544pt" viewBox="0.00 0.00 2336.45 544.00" xmlns="http://www.w3.org/2000/svg">
    <g id="graph0" class="graph" transform="scale(1 1) rotate(0) translate(4 540)">
        <title>workflow</title>
        <polygon fill="white" stroke="transparent" points="-4,4 -4,-540 2332.45,-540 2332.45,4 -4,4"/>
        <!-- place_84263fd216d64699c226b0bf1fb0e71855e33a82 -->
        <g id="node1" class="node">
            <title>place_84263fd216d64699c226b0bf1fb0e71855e33a82</title>
            <ellipse fill="lightblue" stroke="#333333" cx="43.89" cy="-148.5" rx="43.79" ry="43.79"/>
            <text text-anchor="middle" x="43.89" y="-146.3" font-family="Arial" font-size="9.00">demande_initiale</text>
        </g>
        <!-- transition_b6589fc6ab0dc82cf12099d1c2d40ab994e8410c -->
        <g id="node12" class="node">
            <title>transition_b6589fc6ab0dc82cf12099d1c2d40ab994e8410c</title>
            <polygon fill="none" stroke="#333333" points="232.79,-203 123.79,-203 123.79,-94 232.79,-94 232.79,-203"/>
            <text text-anchor="middle" x="178.29" y="-146.3" font-family="Arial" font-size="9.00">
                validation_responsable
            </text>
        </g>
        <!-- place_84263fd216d64699c226b0bf1fb0e71855e33a82&#45;&gt;transition_b6589fc6ab0dc82cf12099d1c2d40ab994e8410c -->
        <g id="edge1" class="edge">
            <title>place_84263fd216d64699c226b0bf1fb0e71855e33a82&#45;&gt;transition_b6589fc6ab0dc82cf12099d1c2d40ab994e8410c</title>
            <path fill="none" stroke="#333333" d="M87.88,-148.5C97.61,-148.5 108.11,-148.5 118.37,-148.5"/>
            <polygon fill="#333333" stroke="#333333"
                     points="118.39,-150.25 123.39,-148.5 118.39,-146.75 118.39,-150.25"/>
        </g>
        <!-- place_576b51f2d7fde73d1f4fba516e26d48dd02aa660 -->
        <g id="node2" class="node">
            <title>place_576b51f2d7fde73d1f4fba516e26d48dd02aa660</title>
            <ellipse fill="none" stroke="#333333" cx="333.85" cy="-148.5" rx="65.13" ry="65.13"/>
            <text text-anchor="middle" x="333.85" y="-146.3" font-family="Arial" font-size="9.00">
                attente_validation_direction
            </text>
        </g>
        <!-- transition_356a192b7913b04c54574d18c28d46e6395428ab -->
        <g id="node13" class="node">
            <title>transition_356a192b7913b04c54574d18c28d46e6395428ab</title>
            <polygon fill="none" stroke="#333333"
                     points="553.92,-275.5 439.92,-275.5 439.92,-161.5 553.92,-161.5 553.92,-275.5"/>
            <text text-anchor="middle" x="496.92" y="-216.3" font-family="Arial" font-size="9.00">
                avis_direction_favorable
            </text>
        </g>
        <!-- place_576b51f2d7fde73d1f4fba516e26d48dd02aa660&#45;&gt;transition_356a192b7913b04c54574d18c28d46e6395428ab -->
        <g id="edge3" class="edge">
            <title>place_576b51f2d7fde73d1f4fba516e26d48dd02aa660&#45;&gt;transition_356a192b7913b04c54574d18c28d46e6395428ab</title>
            <path fill="none" stroke="#333333" d="M393.91,-174.17C407.27,-179.97 421.47,-186.14 434.9,-191.98"/>
            <polygon fill="#333333" stroke="#333333"
                     points="434.53,-193.73 439.81,-194.12 435.93,-190.52 434.53,-193.73"/>
        </g>
        <!-- transition_da4b9237bacccdf19c0760cab7aec4a8359010b0 -->
        <g id="node14" class="node">
            <title>transition_da4b9237bacccdf19c0760cab7aec4a8359010b0</title>
            <polygon fill="none" stroke="#333333"
                     points="558.92,-142.5 434.92,-142.5 434.92,-18.5 558.92,-18.5 558.92,-142.5"/>
            <text text-anchor="middle" x="496.92" y="-78.3" font-family="Arial" font-size="9.00">
                avis_direction_defavorable
            </text>
        </g>
        <!-- place_576b51f2d7fde73d1f4fba516e26d48dd02aa660&#45;&gt;transition_da4b9237bacccdf19c0760cab7aec4a8359010b0 -->
        <g id="edge5" class="edge">
            <title>place_576b51f2d7fde73d1f4fba516e26d48dd02aa660&#45;&gt;transition_da4b9237bacccdf19c0760cab7aec4a8359010b0</title>
            <path fill="none" stroke="#333333" d="M394.37,-123.37C406,-118.46 418.26,-113.29 430.08,-108.3"/>
            <polygon fill="#333333" stroke="#333333"
                     points="430.84,-109.88 434.76,-106.32 429.47,-106.65 430.84,-109.88"/>
        </g>
        <!-- place_8f983c06e8316559cf53a1b1d44bbd962c836672 -->
        <g id="node3" class="node">
            <title>place_8f983c06e8316559cf53a1b1d44bbd962c836672</title>
            <ellipse fill="none" stroke="#333333" cx="638.81" cy="-220.5" rx="38.96" ry="38.96"/>
            <text text-anchor="middle" x="638.81" y="-218.3" font-family="Arial" font-size="9.00">avis_favorable</text>
        </g>
        <!-- transition_77de68daecd823babbb58edb1c8e14d7106e83bb -->
        <g id="node15" class="node">
            <title>transition_77de68daecd823babbb58edb1c8e14d7106e83bb</title>
            <polygon fill="none" stroke="#333333"
                     points="812.71,-268.5 718.71,-268.5 718.71,-174.5 812.71,-174.5 812.71,-268.5"/>
            <text text-anchor="middle" x="765.71" y="-219.3" font-family="Arial" font-size="9.00">verification_compta
            </text>
        </g>
        <!-- place_8f983c06e8316559cf53a1b1d44bbd962c836672&#45;&gt;transition_77de68daecd823babbb58edb1c8e14d7106e83bb -->
        <g id="edge7" class="edge">
            <title>place_8f983c06e8316559cf53a1b1d44bbd962c836672&#45;&gt;transition_77de68daecd823babbb58edb1c8e14d7106e83bb</title>
            <path fill="none" stroke="#333333" d="M677.62,-220.8C688.93,-220.89 701.52,-220.99 713.54,-221.09"/>
            <polygon fill="#333333" stroke="#333333"
                     points="713.63,-222.84 718.65,-221.13 713.66,-219.34 713.63,-222.84"/>
        </g>
        <!-- place_ac1cc89b42fd1cb7ee878be09a412b9d862fa7d9 -->
        <g id="node4" class="node">
            <title>place_ac1cc89b42fd1cb7ee878be09a412b9d862fa7d9</title>
            <ellipse fill="none" stroke="#333333" cx="638.81" cy="-77.5" rx="43.79" ry="43.79"/>
            <text text-anchor="middle" x="638.81" y="-75.3" font-family="Arial" font-size="9.00">avis_defavorable</text>
        </g>
        <!-- transition_17ba0791499db908433b80f37c5fbc89b870084b -->
        <g id="node23" class="node">
            <title>transition_17ba0791499db908433b80f37c5fbc89b870084b</title>
            <polygon fill="none" stroke="#333333" points="1001.71,-153 848.71,-153 848.71,0 1001.71,0 1001.71,-153"/>
            <text text-anchor="middle" x="925.21" y="-74.3" font-family="Arial" font-size="9.00">
                cloture_bc_demande_defavorable
            </text>
        </g>
        <!-- place_ac1cc89b42fd1cb7ee878be09a412b9d862fa7d9&#45;&gt;transition_17ba0791499db908433b80f37c5fbc89b870084b -->
        <g id="edge23" class="edge">
            <title>place_ac1cc89b42fd1cb7ee878be09a412b9d862fa7d9&#45;&gt;transition_17ba0791499db908433b80f37c5fbc89b870084b</title>
            <path fill="none" stroke="#333333" d="M683.01,-77.35C725.46,-77.2 791.28,-76.97 843.44,-76.78"/>
            <polygon fill="#333333" stroke="#333333" points="843.45,-78.53 848.44,-76.77 843.44,-75.03 843.45,-78.53"/>
        </g>
        <!-- place_96e5004ab232e193813819077f885bb8cbf50941 -->
        <g id="node5" class="node">
            <title>place_96e5004ab232e193813819077f885bb8cbf50941</title>
            <ellipse fill="none" stroke="#333333" cx="925.21" cy="-223.5" rx="48.58" ry="48.58"/>
            <text text-anchor="middle" x="925.21" y="-221.3" font-family="Arial" font-size="9.00">verification_compta
            </text>
        </g>
        <!-- transition_1b6453892473a467d07372d45eb05abc2031647a -->
        <g id="node16" class="node">
            <title>transition_1b6453892473a467d07372d45eb05abc2031647a</title>
            <polygon fill="none" stroke="#333333"
                     points="1126.71,-269 1037.71,-269 1037.71,-180 1126.71,-180 1126.71,-269"/>
            <text text-anchor="middle" x="1082.21" y="-222.3" font-family="Arial" font-size="9.00">validation_compta
            </text>
        </g>
        <!-- place_96e5004ab232e193813819077f885bb8cbf50941&#45;&gt;transition_1b6453892473a467d07372d45eb05abc2031647a -->
        <g id="edge9" class="edge">
            <title>place_96e5004ab232e193813819077f885bb8cbf50941&#45;&gt;transition_1b6453892473a467d07372d45eb05abc2031647a</title>
            <path fill="none" stroke="#333333" d="M973.98,-223.81C992.52,-223.93 1013.73,-224.06 1032.37,-224.18"/>
            <polygon fill="#333333" stroke="#333333"
                     points="1032.54,-225.94 1037.55,-224.22 1032.56,-222.44 1032.54,-225.94"/>
        </g>
        <!-- place_28ea5fbe5191cd4522d2e9c28d2cbb55bfde05dd -->
        <g id="node6" class="node">
            <title>place_28ea5fbe5191cd4522d2e9c28d2cbb55bfde05dd</title>
            <ellipse fill="none" stroke="#333333" cx="1208.67" cy="-233.5" rx="45.92" ry="45.92"/>
            <text text-anchor="middle" x="1208.67" y="-231.3" font-family="Arial" font-size="9.00">validation_compta
            </text>
        </g>
        <!-- transition_ac3478d69a3c81fa62e60f5c3696165a4e5e6ac4 -->
        <g id="node17" class="node">
            <title>transition_ac3478d69a3c81fa62e60f5c3696165a4e5e6ac4</title>
            <polygon fill="none" stroke="#333333"
                     points="1364.63,-271.5 1290.63,-271.5 1290.63,-197.5 1364.63,-197.5 1364.63,-271.5"/>
            <text text-anchor="middle" x="1327.63" y="-232.3" font-family="Arial" font-size="9.00">validation_csa</text>
        </g>
        <!-- place_28ea5fbe5191cd4522d2e9c28d2cbb55bfde05dd&#45;&gt;transition_ac3478d69a3c81fa62e60f5c3696165a4e5e6ac4 -->
        <g id="edge11" class="edge">
            <title>place_28ea5fbe5191cd4522d2e9c28d2cbb55bfde05dd&#45;&gt;transition_ac3478d69a3c81fa62e60f5c3696165a4e5e6ac4</title>
            <path fill="none" stroke="#333333" d="M1254.89,-233.89C1264.96,-233.97 1275.58,-234.06 1285.48,-234.15"/>
            <polygon fill="#333333" stroke="#333333"
                     points="1285.57,-235.9 1290.59,-234.19 1285.6,-232.4 1285.57,-235.9"/>
        </g>
        <!-- place_127d4405e13f613dd2e6da0d9ef0a15b3478acb5 -->
        <g id="node7" class="node">
            <title>place_127d4405e13f613dd2e6da0d9ef0a15b3478acb5</title>
            <ellipse fill="none" stroke="#333333" cx="1438.84" cy="-268.5" rx="38.43" ry="38.43"/>
            <text text-anchor="middle" x="1438.84" y="-266.3" font-family="Arial" font-size="9.00">validation_csa</text>
        </g>
        <!-- transition_c1dfd96eea8cc2b62785275bca38ac261256e278 -->
        <g id="node18" class="node">
            <title>transition_c1dfd96eea8cc2b62785275bca38ac261256e278</title>
            <polygon fill="none" stroke="#333333"
                     points="1585.05,-306.5 1513.05,-306.5 1513.05,-234.5 1585.05,-234.5 1585.05,-306.5"/>
            <text text-anchor="middle" x="1549.05" y="-268.3" font-family="Arial" font-size="9.00">service_fait</text>
        </g>
        <!-- place_127d4405e13f613dd2e6da0d9ef0a15b3478acb5&#45;&gt;transition_c1dfd96eea8cc2b62785275bca38ac261256e278 -->
        <g id="edge13" class="edge">
            <title>place_127d4405e13f613dd2e6da0d9ef0a15b3478acb5&#45;&gt;transition_c1dfd96eea8cc2b62785275bca38ac261256e278</title>
            <path fill="none" stroke="#333333" d="M1477.08,-269.19C1486.97,-269.37 1497.7,-269.57 1507.75,-269.76"/>
            <polygon fill="#333333" stroke="#333333"
                     points="1507.9,-271.51 1512.93,-269.85 1507.96,-268.01 1507.9,-271.51"/>
        </g>
        <!-- place_8b7d167d1548ccf361e6dbff0f9e0be147fb5724 -->
        <g id="node8" class="node">
            <title>place_8b7d167d1548ccf361e6dbff0f9e0be147fb5724</title>
            <ellipse fill="none" stroke="#333333" cx="1661.85" cy="-287.5" rx="40.59" ry="40.59"/>
            <text text-anchor="middle" x="1661.85" y="-285.3" font-family="Arial" font-size="9.00">validation_migo
            </text>
        </g>
        <!-- transition_902ba3cda1883801594b6e1b452790cc53948fda -->
        <g id="node19" class="node">
            <title>transition_902ba3cda1883801594b6e1b452790cc53948fda</title>
            <polygon fill="none" stroke="#333333"
                     points="1900.64,-536 1765.64,-536 1765.64,-401 1900.64,-401 1900.64,-536"/>
            <text text-anchor="middle" x="1833.14" y="-466.3" font-family="Arial" font-size="9.00">
                validation_service_fait_partiel
            </text>
        </g>
        <!-- place_8b7d167d1548ccf361e6dbff0f9e0be147fb5724&#45;&gt;transition_902ba3cda1883801594b6e1b452790cc53948fda -->
        <g id="edge15" class="edge">
            <title>place_8b7d167d1548ccf361e6dbff0f9e0be147fb5724&#45;&gt;transition_902ba3cda1883801594b6e1b452790cc53948fda</title>
            <path fill="none" stroke="#333333"
                  d="M1684.31,-321.87C1698.46,-343.27 1718.11,-370.76 1738.64,-392.5 1745.68,-399.95 1753.45,-407.33 1761.41,-414.4"/>
            <polygon fill="#333333" stroke="#333333"
                     points="1760.41,-415.86 1765.33,-417.84 1762.72,-413.23 1760.41,-415.86"/>
        </g>
        <!-- transition_fe5dbbcea5ce7e2988b8c69bcfdfde8904aabc1f -->
        <g id="node20" class="node">
            <title>transition_fe5dbbcea5ce7e2988b8c69bcfdfde8904aabc1f</title>
            <polygon fill="none" stroke="#333333"
                     points="1903.14,-175.5 1763.14,-175.5 1763.14,-35.5 1903.14,-35.5 1903.14,-175.5"/>
            <text text-anchor="middle" x="1833.14" y="-103.3" font-family="Arial" font-size="9.00">
                validation_service_fait_compet
            </text>
        </g>
        <!-- place_8b7d167d1548ccf361e6dbff0f9e0be147fb5724&#45;&gt;transition_fe5dbbcea5ce7e2988b8c69bcfdfde8904aabc1f -->
        <g id="edge17" class="edge">
            <title>place_8b7d167d1548ccf361e6dbff0f9e0be147fb5724&#45;&gt;transition_fe5dbbcea5ce7e2988b8c69bcfdfde8904aabc1f</title>
            <path fill="none" stroke="#333333"
                  d="M1684.98,-253.87C1699.24,-233.24 1718.77,-206.79 1738.64,-185.5 1745.04,-178.65 1751.99,-171.8 1759.12,-165.14"/>
            <polygon fill="#333333" stroke="#333333"
                     points="1760.61,-166.15 1763.09,-161.47 1758.23,-163.58 1760.61,-166.15"/>
        </g>
        <!-- transition_0ade7c2cf97f75d009975f4d720d1fa6c19f4897 -->
        <g id="node21" class="node">
            <title>transition_0ade7c2cf97f75d009975f4d720d1fa6c19f4897</title>
            <polygon fill="none" stroke="#333333"
                     points="1927.64,-383 1738.64,-383 1738.64,-194 1927.64,-194 1927.64,-383"/>
            <text text-anchor="middle" x="1833.14" y="-286.3" font-family="Arial" font-size="9.00">
                validation_service_fait_partiel_complement
            </text>
        </g>
        <!-- place_8b7d167d1548ccf361e6dbff0f9e0be147fb5724&#45;&gt;transition_0ade7c2cf97f75d009975f4d720d1fa6c19f4897 -->
        <g id="edge19" class="edge">
            <title>place_8b7d167d1548ccf361e6dbff0f9e0be147fb5724&#45;&gt;transition_0ade7c2cf97f75d009975f4d720d1fa6c19f4897</title>
            <path fill="none" stroke="#333333" d="M1702.97,-287.74C1712.3,-287.79 1722.63,-287.85 1733.28,-287.92"/>
            <polygon fill="#333333" stroke="#333333"
                     points="1733.51,-289.67 1738.52,-287.95 1733.53,-286.17 1733.51,-289.67"/>
        </g>
        <!-- place_1248f424c0fc09f60004570cec542bc2ab0c0ca4 -->
        <g id="node9" class="node">
            <title>place_1248f424c0fc09f60004570cec542bc2ab0c0ca4</title>
            <ellipse fill="none" stroke="#333333" cx="2023.55" cy="-378.5" rx="56.08" ry="56.08"/>
            <text text-anchor="middle" x="2023.55" y="-376.3" font-family="Arial" font-size="9.00">
                validation_migo_partiel
            </text>
        </g>
        <!-- place_8b553cd309b2b3ae0872f587d8114fe7374838c5 -->
        <g id="node10" class="node">
            <title>place_8b553cd309b2b3ae0872f587d8114fe7374838c5</title>
            <ellipse fill="none" stroke="#333333" cx="2023.55" cy="-100.5" rx="59.8" ry="59.8"/>
            <text text-anchor="middle" x="2023.55" y="-98.3" font-family="Arial" font-size="9.00">
                validation_migo_complet
            </text>
        </g>
        <!-- transition_b1d5781111d84f7b3fe45a0852e59758cd7a87e5 -->
        <g id="node22" class="node">
            <title>transition_b1d5781111d84f7b3fe45a0852e59758cd7a87e5</title>
            <polygon fill="none" stroke="#333333"
                     points="2220.45,-146 2119.45,-146 2119.45,-45 2220.45,-45 2220.45,-146"/>
            <text text-anchor="middle" x="2169.95" y="-93.3" font-family="Arial" font-size="9.00">cloture_bc_demande
            </text>
        </g>
        <!-- place_8b553cd309b2b3ae0872f587d8114fe7374838c5&#45;&gt;transition_b1d5781111d84f7b3fe45a0852e59758cd7a87e5 -->
        <g id="edge21" class="edge">
            <title>place_8b553cd309b2b3ae0872f587d8114fe7374838c5&#45;&gt;transition_b1d5781111d84f7b3fe45a0852e59758cd7a87e5</title>
            <path fill="none" stroke="#333333" d="M2083.7,-98.45C2093.78,-98.1 2104.21,-97.74 2114.17,-97.4"/>
            <polygon fill="#333333" stroke="#333333"
                     points="2114.4,-99.14 2119.34,-97.22 2114.28,-95.64 2114.4,-99.14"/>
        </g>
        <!-- place_6d29c757894aceb79c7b014bb3ca510c88d5f475 -->
        <g id="node11" class="node">
            <title>place_6d29c757894aceb79c7b014bb3ca510c88d5f475</title>
            <ellipse fill="none" stroke="#333333" cx="2292.45" cy="-46.5" rx="36" ry="36"/>
            <text text-anchor="middle" x="2292.45" y="-44.3" font-family="Arial" font-size="9.00">cloture</text>
        </g>
        <!-- transition_b6589fc6ab0dc82cf12099d1c2d40ab994e8410c&#45;&gt;place_576b51f2d7fde73d1f4fba516e26d48dd02aa660 -->
        <g id="edge2" class="edge">
            <title>transition_b6589fc6ab0dc82cf12099d1c2d40ab994e8410c&#45;&gt;place_576b51f2d7fde73d1f4fba516e26d48dd02aa660</title>
            <path fill="none" stroke="#333333" d="M233,-148.5C242.88,-148.5 253.33,-148.5 263.6,-148.5"/>
            <polygon fill="#333333" stroke="#333333"
                     points="263.62,-150.25 268.62,-148.5 263.62,-146.75 263.62,-150.25"/>
        </g>
        <!-- transition_356a192b7913b04c54574d18c28d46e6395428ab&#45;&gt;place_8f983c06e8316559cf53a1b1d44bbd962c836672 -->
        <g id="edge4" class="edge">
            <title>transition_356a192b7913b04c54574d18c28d46e6395428ab&#45;&gt;place_8f983c06e8316559cf53a1b1d44bbd962c836672</title>
            <path fill="none" stroke="#333333" d="M554.01,-219.3C567.57,-219.5 581.85,-219.7 594.7,-219.88"/>
            <polygon fill="#333333" stroke="#333333"
                     points="594.72,-221.63 599.74,-219.96 594.77,-218.13 594.72,-221.63"/>
        </g>
        <!-- transition_da4b9237bacccdf19c0760cab7aec4a8359010b0&#45;&gt;place_ac1cc89b42fd1cb7ee878be09a412b9d862fa7d9 -->
        <g id="edge6" class="edge">
            <title>transition_da4b9237bacccdf19c0760cab7aec4a8359010b0&#45;&gt;place_ac1cc89b42fd1cb7ee878be09a412b9d862fa7d9</title>
            <path fill="none" stroke="#333333" d="M559.28,-79.18C569.41,-78.97 579.78,-78.74 589.53,-78.54"/>
            <polygon fill="#333333" stroke="#333333" points="589.6,-80.28 594.56,-78.43 589.53,-76.79 589.6,-80.28"/>
        </g>
        <!-- transition_77de68daecd823babbb58edb1c8e14d7106e83bb&#45;&gt;place_96e5004ab232e193813819077f885bb8cbf50941 -->
        <g id="edge8" class="edge">
            <title>transition_77de68daecd823babbb58edb1c8e14d7106e83bb&#45;&gt;place_96e5004ab232e193813819077f885bb8cbf50941</title>
            <path fill="none" stroke="#333333" d="M813.11,-222.09C831.36,-222.32 852.41,-222.59 871.25,-222.83"/>
            <polygon fill="#333333" stroke="#333333"
                     points="871.48,-224.58 876.5,-222.89 871.52,-221.08 871.48,-224.58"/>
        </g>
        <!-- transition_1b6453892473a467d07372d45eb05abc2031647a&#45;&gt;place_28ea5fbe5191cd4522d2e9c28d2cbb55bfde05dd -->
        <g id="edge10" class="edge">
            <title>transition_1b6453892473a467d07372d45eb05abc2031647a&#45;&gt;place_28ea5fbe5191cd4522d2e9c28d2cbb55bfde05dd</title>
            <path fill="none" stroke="#333333" d="M1126.74,-227.65C1136.74,-228.37 1147.45,-229.15 1157.7,-229.89"/>
            <polygon fill="#333333" stroke="#333333"
                     points="1157.57,-231.63 1162.68,-230.25 1157.82,-228.14 1157.57,-231.63"/>
        </g>
        <!-- transition_ac3478d69a3c81fa62e60f5c3696165a4e5e6ac4&#45;&gt;place_127d4405e13f613dd2e6da0d9ef0a15b3478acb5 -->
        <g id="edge12" class="edge">
            <title>transition_ac3478d69a3c81fa62e60f5c3696165a4e5e6ac4&#45;&gt;place_127d4405e13f613dd2e6da0d9ef0a15b3478acb5</title>
            <path fill="none" stroke="#333333" d="M1364.69,-245.73C1375.14,-248.98 1386.62,-252.56 1397.33,-255.89"/>
            <polygon fill="#333333" stroke="#333333"
                     points="1396.89,-257.59 1402.19,-257.4 1397.93,-254.24 1396.89,-257.59"/>
        </g>
        <!-- transition_c1dfd96eea8cc2b62785275bca38ac261256e278&#45;&gt;place_8b7d167d1548ccf361e6dbff0f9e0be147fb5724 -->
        <g id="edge14" class="edge">
            <title>transition_c1dfd96eea8cc2b62785275bca38ac261256e278&#45;&gt;place_8b7d167d1548ccf361e6dbff0f9e0be147fb5724</title>
            <path fill="none" stroke="#333333" d="M1585.11,-275.88C1595.03,-277.4 1605.95,-279.08 1616.34,-280.67"/>
            <polygon fill="#333333" stroke="#333333"
                     points="1616.19,-282.42 1621.4,-281.45 1616.72,-278.96 1616.19,-282.42"/>
        </g>
        <!-- transition_902ba3cda1883801594b6e1b452790cc53948fda&#45;&gt;place_1248f424c0fc09f60004570cec542bc2ab0c0ca4 -->
        <g id="edge16" class="edge">
            <title>transition_902ba3cda1883801594b6e1b452790cc53948fda&#45;&gt;place_1248f424c0fc09f60004570cec542bc2ab0c0ca4</title>
            <path fill="none" stroke="#333333" d="M1900.83,-436.64C1922.78,-426.16 1946.91,-414.63 1967.85,-404.63"/>
            <polygon fill="#333333" stroke="#333333"
                     points="1968.79,-406.12 1972.55,-402.38 1967.28,-402.96 1968.79,-406.12"/>
        </g>
        <!-- transition_fe5dbbcea5ce7e2988b8c69bcfdfde8904aabc1f&#45;&gt;place_8b553cd309b2b3ae0872f587d8114fe7374838c5 -->
        <g id="edge18" class="edge">
            <title>transition_fe5dbbcea5ce7e2988b8c69bcfdfde8904aabc1f&#45;&gt;place_8b553cd309b2b3ae0872f587d8114fe7374838c5</title>
            <path fill="none" stroke="#333333" d="M1903.23,-103.67C1921.12,-103.19 1940.32,-102.68 1957.97,-102.21"/>
            <polygon fill="#333333" stroke="#333333"
                     points="1958.44,-103.95 1963.39,-102.07 1958.35,-100.45 1958.44,-103.95"/>
        </g>
        <!-- transition_0ade7c2cf97f75d009975f4d720d1fa6c19f4897&#45;&gt;place_1248f424c0fc09f60004570cec542bc2ab0c0ca4 -->
        <g id="edge20" class="edge">
            <title>transition_0ade7c2cf97f75d009975f4d720d1fa6c19f4897&#45;&gt;place_1248f424c0fc09f60004570cec542bc2ab0c0ca4</title>
            <path fill="none" stroke="#333333" d="M1927.79,-333.24C1941.45,-339.76 1955.12,-346.29 1967.65,-352.28"/>
            <polygon fill="#333333" stroke="#333333"
                     points="1966.95,-353.88 1972.22,-354.46 1968.46,-350.72 1966.95,-353.88"/>
        </g>
        <!-- transition_b1d5781111d84f7b3fe45a0852e59758cd7a87e5&#45;&gt;place_6d29c757894aceb79c7b014bb3ca510c88d5f475 -->
        <g id="edge22" class="edge">
            <title>transition_b1d5781111d84f7b3fe45a0852e59758cd7a87e5&#45;&gt;place_6d29c757894aceb79c7b014bb3ca510c88d5f475</title>
            <path fill="none" stroke="#333333" d="M2220.66,-75.29C2231.79,-70.76 2243.41,-66.03 2253.95,-61.75"/>
            <polygon fill="#333333" stroke="#333333"
                     points="2254.74,-63.32 2258.71,-59.81 2253.42,-60.07 2254.74,-63.32"/>
        </g>
        <!-- transition_17ba0791499db908433b80f37c5fbc89b870084b&#45;&gt;place_6d29c757894aceb79c7b014bb3ca510c88d5f475 -->
        <g id="edge24" class="edge">
            <title>transition_17ba0791499db908433b80f37c5fbc89b870084b&#45;&gt;place_6d29c757894aceb79c7b014bb3ca510c88d5f475</title>
            <path fill="none" stroke="#333333"
                  d="M1001.74,-47.54C1057.72,-28.66 1136.35,-7.5 1207.67,-7.5 1207.67,-7.5 1207.67,-7.5 2024.55,-7.5 2106.2,-7.5 2200.45,-25.59 2252.25,-37.13"/>
            <polygon fill="#333333" stroke="#333333"
                     points="2251.87,-38.84 2257.13,-38.23 2252.64,-35.43 2251.87,-38.84"/>
        </g>
    </g>
</svg>
