<?xml version="1.0" encoding="utf-8"?>
<!-- Generator: Adobe Illustrator 22.1.0, SVG Export Plug-In . SVG Version: 6.00 Build 0)  -->
<svg xmlns:xlink="http://www.w3.org/1999/xlink" version="1.1" id="Calque_1" xmlns="http://www.w3.org/2000/svg" x="0px"
	 y="0px"
	 viewBox="0 0 500 500" style="enable-background:new 0 0 500 500;" xml:space="preserve">
<style type="text/css">
	.st0{fill:#46ABBC;}
	.st1{fill:#146F88;}

.bounce {
	-webkit-animation: bounce 2s;
	        animation: bounce 2s;
	-webkit-animation-iteration-count: infinite;
	        animation-iteration-count: infinite;
}

@-webkit-keyframes bounce {
	0%,
	25%,
	50%,
	75%,
	100% {
		-webkit-transform: translateY(0);
		        transform: translateY(0);
	}
	40% {
		-webkit-transform: translateY(-20px);
		        transform: translateY(-20px);
	}
	60% {
		-webkit-transform: translateY(-12px);
		        transform: translateY(-12px);
	}
}

@keyframes bounce {
	0%,
	25%,
	50%,
	75%,
	100% {
		-webkit-transform: translateY(0);
		        transform: translateY(0);
	}
	40% {
		-webkit-transform: translateY(-20px);
		        transform: translateY(-20px);
	}
	60% {
		-webkit-transform: translateY(-12px);
		        transform: translateY(-12px);
	}
}

</style>
	<pattern id="Pattern" x="0" y="0" width="400" height="50" patternUnits="userSpaceOnUse">
   <rect x="0" y="0" width="0" height="50" fill="#146F88">
   	<animate attributeName="width" from="0" to="400" dur="2s" fill="freeze"
			 repeatCount="indefinite"/>
   </rect>
 </pattern>
	<pattern id="Pattern2" x="0" y="0" width="800" height="50" patternUnits="userSpaceOnUse">
   <rect x="0" y="0" width="0" height="50" fill="#46ABBC">
   	<animate attributeName="width" from="0" to="800" dur="4s" fill="freeze"
			 repeatCount="indefinite"/>
   </rect>
 </pattern>
	<pattern id="Pattern3" x="0" y="0" width="400" height="50" patternUnits="userSpaceOnUse">
   	<animate attributeName="width" fill="freeze"
			 repeatCount="indefinite" begin="4s"/>
 </pattern>
	<g id="logo_x5F_construct_2_">
	<path fill="url(#Pattern2)" d="M372.5,273.9c0,39.1-53.2,39.1-53.2,0v-49.7l-0.1,0.6c0,4.5-38.7,28.6-49.2,23.2v38.6c0,0.8,0,1.6,0.1,2.4
		c0,0,0,0.1,0,0.1c4.9,90.1,153.8,86.9,151.7-2.6v-93.2h32.5c5.3,0,9.6-4.3,9.6-9.6v-30.1c0-5.3-4.3-9.6-9.6-9.6h-111
		c-5.3,0-9.6,4.3-9.6,9.6v30.1c0,5.3,4.3,9.6,9.6,9.6h29.1L372.5,273.9z"/>
		<path fill="url(#Pattern)" d="M319.3,224.5v-3.9c-2.2-92.7-154-90.4-151.8,0l0.1,53.4c-0.1,39.1-53.3,39.1-53.2,0l0-64.6
		c-7.3,4.2-15.7,6.6-24.7,6.6c-9,0-17.4-2.4-24.6-6.6v77.3c2.2,92.7,154,90.4,151.8,0l-0.1-53.4c0.1-39.1,53.2-39.1,53.2-0.1v14.9
		c10.5,5.4,49.2-18.7,49.2-23.2L319.3,224.5z"/>
		<path fill="url(#Pattern3)" class="st1" d="M256.8,240.2c-0.9,5.6-5.5,10.2-11.1,11.1c-9.3,1.5-17.1-6.4-15.6-15.7c0.9-5.6,5.4-10.1,11-11
		C250.3,223,258.3,230.9,256.8,240.2z"/>
		<circle class="st0 bounce" cx="88.9" cy="169.5" r="27.6"/>
</g>
</svg>
